<svg xmlns="http://www.w3.org/2000/svg" viewBox="240 296 240 145" width="240" height="145">
  <!-- Icon navy shapes -->
  <path d="M 278.75 431.33 C279.71,431.60 281.40,431.62 282.50,431.39 C283.60,431.16 287.94,430.69 292.15,430.35 C298.26,429.85 300.69,429.14 304.15,426.84 C306.54,425.26 309.96,423.03 311.75,421.88 C313.54,420.74 315.00,419.33 315.00,418.75 C315.00,418.16 316.12,416.21 317.50,414.41 C320.86,410.00 320.66,408.25 316.22,403.25 C313.46,400.14 311.69,399.00 309.62,399.00 C306.39,399.00 299.27,404.17 298.03,407.41 C296.65,411.06 284.75,413.31 280.42,410.74 C272.96,406.31 271.56,404.87 269.33,399.39 C266.61,392.70 266.48,391.07 268.47,388.44 C269.28,387.37 269.95,385.54 269.97,384.37 C269.99,383.19 271.01,381.54 272.25,380.70 C273.49,379.87 276.02,377.77 277.87,376.04 C280.43,373.65 281.88,373.02 283.87,373.41 C285.32,373.69 288.60,374.21 291.17,374.56 C294.30,374.99 296.61,376.03 298.17,377.70 C299.45,379.07 302.08,381.01 304.00,382.00 C305.92,382.99 309.95,386.16 312.95,389.04 C315.95,391.92 319.65,395.03 321.16,395.95 C322.68,396.88 326.15,399.63 328.87,402.07 C331.59,404.50 335.71,407.62 338.02,409.00 C342.71,411.79 346.72,415.00 345.52,415.00 C344.46,415.00 348.83,418.21 352.23,419.94 C353.74,420.70 355.22,422.11 355.53,423.08 C356.26,425.39 363.26,429.00 367.01,429.00 C368.63,429.00 371.77,429.72 373.98,430.61 C376.38,431.57 379.31,431.99 381.25,431.65 C383.04,431.33 387.32,430.66 390.77,430.14 C395.70,429.41 397.48,428.65 399.10,426.61 C400.22,425.17 401.71,424.00 402.40,424.00 C405.97,424.00 416.98,407.17 416.99,401.69 C417.00,399.31 417.39,398.12 418.04,398.52 C418.69,398.93 418.90,398.29 418.60,396.83 C418.33,395.55 417.82,391.12 417.47,387.00 C416.79,379.02 415.36,375.94 407.70,365.91 C405.16,362.59 402.93,360.74 400.99,360.35 C399.39,360.03 397.40,358.73 396.56,357.46 C395.23,355.42 394.04,355.09 386.28,354.63 C381.45,354.34 376.83,354.05 376.00,353.97 C368.09,353.23 348.00,366.23 346.49,373.08 C345.70,376.66 347.51,380.86 350.31,381.93 C351.60,382.42 353.39,383.95 354.29,385.32 C356.71,389.01 359.82,388.01 364.03,382.22 C370.20,373.75 381.62,371.47 390.30,376.98 C394.39,379.57 395.68,381.12 394.75,382.32 C394.61,382.50 395.29,383.43 396.25,384.39 C398.91,387.05 398.56,395.13 395.50,401.60 C392.80,407.30 389.86,410.00 386.34,410.00 C385.12,410.00 383.84,410.45 383.50,411.00 C382.52,412.58 377.82,412.08 374.00,409.99 C372.08,408.94 368.94,407.34 367.02,406.43 C365.11,405.52 362.81,403.93 361.91,402.89 C361.00,401.85 359.75,401.00 359.11,401.00 C358.48,401.00 357.45,399.89 356.83,398.53 C356.19,397.12 354.26,395.58 352.35,394.95 C350.51,394.34 349.00,393.17 349.00,392.34 C349.00,391.51 347.65,390.32 346.00,389.69 C344.35,389.07 342.73,387.72 342.40,386.69 C342.07,385.66 340.39,384.22 338.65,383.49 C336.92,382.76 334.18,380.78 332.56,379.08 C330.95,377.39 329.12,376.00 328.49,376.00 C327.87,376.00 326.41,374.99 325.25,373.75 C322.44,370.76 320.86,369.54 318.73,368.73 C317.76,368.35 316.54,366.91 316.01,365.53 C315.35,363.79 314.30,363.00 312.65,363.00 C311.33,363.00 309.66,362.30 308.95,361.44 C308.24,360.59 306.06,359.22 304.11,358.40 C302.17,357.59 300.28,356.45 299.92,355.87 C299.56,355.29 295.04,354.62 289.88,354.38 C284.72,354.14 280.05,353.91 279.50,353.86 C278.04,353.73 265.90,359.53 263.15,361.67 C258.76,365.09 253.05,371.10 251.63,373.80 C249.76,377.36 247.99,392.19 248.68,398.50 C248.98,401.25 249.85,404.72 250.62,406.20 C251.38,407.69 252.00,410.09 252.00,411.54 C252.00,413.35 252.64,414.35 254.00,414.71 C255.10,415.00 256.00,415.59 256.00,416.02 C256.00,417.35 262.29,424.00 263.55,424.00 C264.20,424.00 265.80,424.83 267.12,425.86 C268.43,426.88 271.19,428.02 273.25,428.40 C275.31,428.78 277.00,429.49 277.00,429.97 C277.00,430.46 277.79,431.07 278.75,431.33 Z M 340.83 351.36 C345.72,356.54 346.52,357.00 350.53,357.00 C354.26,357.00 355.08,356.61 356.20,354.34 C356.91,352.88 358.40,351.19 359.50,350.59 C363.46,348.43 364.31,344.55 361.06,343.52 C360.00,343.18 358.54,341.58 357.82,339.95 C357.10,338.33 355.94,337.00 355.24,337.00 C354.55,337.00 350.72,333.67 346.74,329.60 C339.10,321.79 334.97,317.63 330.33,313.07 C328.77,311.54 326.52,309.10 325.33,307.65 C323.15,305.00 323.15,305.00 308.23,305.00 C300.02,305.00 289.94,304.72 285.83,304.37 L 278.35 303.74 L 276.78 307.12 C275.55,309.75 275.30,312.88 275.62,321.19 C275.86,327.08 275.62,334.50 275.11,337.69 C273.83,345.60 275.11,346.89 284.82,347.44 C291.70,347.83 292.13,347.73 293.74,345.28 C294.89,343.53 295.53,340.10 295.73,334.60 C296.09,324.96 296.92,324.00 304.88,324.00 C311.32,324.00 319.22,327.26 318.34,329.55 C318.02,330.38 318.57,331.27 319.65,331.68 C322.18,332.62 328.00,337.30 328.00,338.39 C328.00,339.14 330.09,341.23 334.50,344.89 C335.05,345.34 337.90,348.25 340.83,351.36 Z M 454.86 431.53 C455.19,431.85 456.36,431.87 457.47,431.57 C458.59,431.27 461.52,430.99 464.00,430.93 C466.48,430.88 467.94,430.62 467.25,430.34 C465.66,429.69 465.61,427.92 467.19,428.25 C469.67,428.77 469.01,425.24 466.30,423.52 C462.72,421.26 460.25,418.34 458.42,414.25 C457.63,412.46 456.60,411.00 456.14,411.00 C455.42,411.00 453.90,407.99 451.59,402.00 C451.27,401.17 450.63,399.83 450.15,399.00 C445.90,391.57 439.99,370.45 441.48,368.03 C442.51,366.37 440.90,349.24 439.54,347.39 C437.67,344.83 427.32,344.79 423.65,347.31 L 420.81 349.27 L 421.46 358.39 C422.44,372.26 424.95,388.68 426.55,391.75 C427.34,393.26 427.99,395.03 427.99,395.67 C428.00,396.31 428.65,398.11 429.44,399.67 C431.69,404.10 434.19,410.12 434.42,411.64 C434.53,412.40 435.16,413.56 435.81,414.21 C436.46,414.86 437.00,416.13 437.00,417.02 C437.00,417.91 438.12,419.62 439.50,420.81 C440.88,422.01 442.00,423.46 442.00,424.04 C442.00,426.41 446.66,429.97 450.39,430.45 C452.53,430.72 454.54,431.21 454.86,431.53 Z" fill="#162745"/>
  <!-- Icon yellow accents -->
  <path d="M 278.22 427.94 C268.94,426.11 258.55,417.97 254.03,409.00 C239.22,379.56 268.06,347.47 299.25,358.69 C305.08,360.78 310.05,364.51 356.98,401.94 C362.20,406.10 368.46,410.51 370.90,411.75 C384.66,418.73 401.00,408.28 401.00,392.50 C401.00,377.14 385.18,366.65 371.44,372.89 C367.65,374.61 360.00,382.23 360.00,384.29 C360.00,385.66 357.97,384.64 352.26,380.41 C346.30,375.97 346.34,375.70 354.18,367.40 C361.41,359.75 369.11,356.51 380.00,356.51 C387.21,356.51 389.43,356.94 394.61,359.33 C402.26,362.86 409.05,369.68 412.70,377.50 C415.11,382.67 415.50,384.74 415.50,392.50 C415.50,400.26 415.11,402.33 412.70,407.50 C405.29,423.38 386.81,432.30 370.92,427.66 C362.11,425.08 360.01,423.59 317.50,389.56 C299.63,375.25 292.71,371.03 287.12,371.01 C278.39,370.98 270.71,375.84 267.01,383.71 C265.20,387.56 264.87,389.60 265.29,394.31 C266.64,409.14 281.17,417.85 294.80,411.99 C299.63,409.91 306.00,404.21 306.00,401.97 C306.00,399.90 309.72,401.17 314.21,404.75 C316.79,406.81 318.93,408.80 318.95,409.16 C318.98,409.52 317.25,412.03 315.12,414.73 C306.43,425.72 292.43,430.74 278.22,427.94 Z M 443.37 421.91 C431.64,403.78 425.18,383.23 424.26,361.20 L 423.71 347.91 L 431.06 348.20 L 438.40 348.50 L 438.62 359.57 C439.07,382.45 447.73,405.85 462.14,423.14 C464.26,425.69 466.00,428.05 466.00,428.39 C466.00,428.72 461.94,429.00 456.98,429.00 L 447.96 429.00 L 443.37 421.91 Z M 332.38 338.91 L 315.38 322.00 L 293.00 322.00 L 293.00 345.00 L 278.00 345.00 L 278.00 307.00 L 321.52 307.00 L 341.90 327.40 L 362.28 347.80 L 352.43 353.53 L 349.37 355.82 L 332.38 338.91 Z" fill="#F6D442"/>
</svg>
